<mxfile host="app.diagrams.net" modified="2024-04-29T08:35:50.707Z" agent="Mozilla/5.0 (Windows NT 10.0; Win64; x64) AppleWebKit/537.36 (KHTML, like Gecko) Chrome/124.0.0.0 Safari/537.36" version="24.3.1" etag="Fj-YgOMP6kqPf78hd340" type="github">
  <diagram name="페이지-1" id="yhFODVoMoeWMTHs1H-So">
    <mxGraphModel>
      <root>
        <mxCell id="0" />
        <mxCell id="1" parent="0" />
      </root>
    </mxGraphModel>
  </diagram>
</mxfile>
